<?xml version="1.0" encoding="utf-8"?>
<!-- Generator: Adobe Illustrator 22.1.0, SVG Export Plug-In . SVG Version: 6.00 Build 0)  -->
<!DOCTYPE svg PUBLIC "-//W3C//DTD SVG 1.1//EN" "http://www.w3.org/Graphics/SVG/1.1/DTD/svg11.dtd">
<svg version="1.1" id="Layer_1" xmlns="http://www.w3.org/2000/svg" xmlns:xlink="http://www.w3.org/1999/xlink" x="0px" y="0px"
	 viewBox="0 0 1336 1224" enable-background="new 0 0 1336 1224" xml:space="preserve">
<g>
	<polygon points="529.6,1188.1 527.6,1188.1 527.6,1110.6 587.6,1110.6 587.6,962.1 682.1,962.1 682.1,841.1 643.1,841.1 
		643.1,719.1 721.1,719.1 721.1,622.1 682.1,622.1 682.1,519.1 684.1,519.1 684.1,620.1 723.1,620.1 723.1,721.1 645.1,721.1 
		645.1,839.1 684.1,839.1 684.1,964.1 589.6,964.1 589.6,1112.6 529.6,1112.6 	"/>
</g>
<g>
	<polygon points="729.1,843.1 727.1,843.1 727.1,768.6 772.1,768.6 772.1,655.1 722.1,655.1 722.1,653.1 774.1,653.1 774.1,770.6 
		729.1,770.6 	"/>
</g>
<g>
	<polygon points="711.1,1110.1 709.1,1110.1 709.1,989.1 764.6,989.1 764.6,899.6 683.1,899.6 683.1,897.6 766.6,897.6 766.6,991.1 
		711.1,991.1 	"/>
</g>
<g>
	<polygon points="843.1,814.6 841.1,814.6 841.1,697.1 773.1,697.1 773.1,695.1 843.1,695.1 	"/>
</g>
<g>
	<polygon points="529.6,906.1 527.6,906.1 527.6,767.1 644.1,767.1 644.1,769.1 529.6,769.1 	"/>
</g>
<g>
	<polygon points="645.1,1162.6 643.1,1162.6 643.1,1030.1 588.6,1030.1 588.6,1028.1 645.1,1028.1 	"/>
</g>
<g>
	<polygon points="553.6,961.6 551.6,961.6 551.6,815.6 528.6,815.6 528.6,813.6 553.6,813.6 	"/>
</g>
<g>
	<polygon points="820.6,843.1 818.6,843.1 818.6,737.1 842.1,737.1 842.1,739.1 820.6,739.1 	"/>
</g>
<g>
	<polygon points="756.1,859.6 754.1,859.6 754.1,797.6 728.1,797.6 728.1,795.6 756.1,795.6 	"/>
</g>
<g>
	<polygon points="798.1,1059.1 796.1,1059.1 796.1,931.1 765.6,931.1 765.6,929.1 798.1,929.1 	"/>
</g>
<g>
	<polygon points="748.6,1084.6 746.6,1084.6 746.6,1022.6 710.1,1022.6 710.1,1020.6 748.6,1020.6 	"/>
</g>
<g>
	<polygon points="498.1,1072.6 496.1,1072.6 496.1,1003.3 588.6,1003.3 588.6,1005.3 498.1,1005.3 	"/>
</g>
<g>
	<polygon points="78.6,1209 77.2,1207.6 132.7,1152.1 77.2,1096.6 210.6,963.2 242.9,995.4 343.4,894.8 271.1,822.5 347.5,746 
		383.3,781.9 467.4,697.8 426.1,656.5 512.9,569.7 514.3,571.1 428.9,656.5 470.2,697.8 383.3,784.7 347.5,748.9 273.9,822.5 
		346.3,894.8 242.9,998.2 210.6,966 80,1096.6 135.5,1152.1 	"/>
</g>
<g>
	<polygon points="455.1,771 453.7,769.5 531.7,691.6 462.1,622 463.5,620.5 534.5,691.6 	"/>
</g>
<g>
	<polygon points="288.8,748.4 287.3,746.9 363.1,671.2 429.3,737.4 427.8,738.8 363.1,674 	"/>
</g>
<g>
	<polygon points="263.1,1125 261.7,1123.6 372.7,1012.6 299.9,939.8 301.3,938.4 375.5,1012.6 	"/>
</g>
<g>
	<polygon points="21.6,1060.5 20.2,1059.1 108.6,970.7 156.6,1018.6 155.2,1020 108.6,973.5 	"/>
</g>
<g>
	<polygon points="205.5,1139.5 204.1,1138 312,1030.1 334.3,1052.4 332.9,1053.8 312,1032.9 	"/>
</g>
<g>
	<polygon points="114.9,871.9 113.5,870.5 241,743 296.4,798.5 295,799.9 241,745.9 	"/>
</g>
<g>
	<polygon points="283,690.7 281.6,689.3 316.9,654 349.3,686.4 347.9,687.8 316.9,656.8 	"/>
</g>
<g>
	<polygon points="41.1,874.5 39.7,873.1 135.2,777.5 171.6,813.9 170.2,815.3 135.2,780.4 	"/>
</g>
<g>
	<polygon points="131.1,946.5 129.7,945.1 220,854.8 260.5,895.3 302.9,852.9 304.3,854.3 260.5,898.1 220,857.6 	"/>
</g>
<g>
	<polygon points="370.5,856 369.1,854.6 426.4,797.3 397.9,768.8 399.3,767.4 429.2,797.3 	"/>
</g>
<g>
	<polygon points="66.6,1056 65.2,1054.6 95.2,1024.6 75.7,1005 77.1,1003.6 98,1024.6 	"/>
</g>
<g>
	<rect x="58.1" y="1142.3" transform="matrix(0.7071 -0.7071 0.7071 0.7071 -783.2317 395.6133)" width="55.7" height="2"/>
</g>
<g>
	<polygon points="1304.9,1082.3 1182.2,959.6 1129.1,1012.7 987.5,871 1062.3,796.2 958.2,692.1 929.4,720.9 879.4,670.8 
		937.4,612.8 851.9,527.3 853.3,525.9 940.2,612.8 882.2,670.8 929.4,718.1 958.2,689.3 1065.1,796.2 990.3,871 1129.1,1009.8 
		1182.2,956.8 1306.3,1080.9 	"/>
</g>
<g>
	<polygon points="375.7,890.4 374.3,889 419.2,844.1 400.3,825.1 401.7,823.7 422.1,844.1 	"/>
</g>
<g>
	<polygon points="176.5,935.8 175.1,934.3 204,905.4 187.4,888.8 188.8,887.4 206.9,905.4 	"/>
</g>
<g>
	<polygon points="1156.8,790.8 1043.5,677.6 994.3,726.8 992.9,725.4 1043.5,674.7 1158.2,789.4 	"/>
</g>
<g>
	<polygon points="966.6,979.5 886,899 986.1,798.9 1023.5,836.4 1022.1,837.8 986.1,801.7 888.9,899 968,978.1 	"/>
</g>
<g>
	<polygon points="1162.6,1100.5 1050.8,988.8 1078.7,960.9 1080.2,962.3 1053.7,988.8 1164,1099.1 	"/>
</g>
<g>
	<polygon points="994.4,1109.3 876.7,991.6 928.4,939.9 929.8,941.3 879.5,991.6 995.8,1107.9 	"/>
</g>
<g>
	<polygon points="1265.9,1071.8 1220.1,1026.1 1235.1,1011.1 1236.5,1012.5 1223,1026.1 1267.3,1070.4 	"/>
</g>
<g>
	<polygon points="1149.6,1158 1057.5,1065.9 1093.5,1030 1094.9,1031.4 1060.3,1065.9 1151,1156.6 	"/>
</g>
<g>
	<polygon points="978.2,1060.9 931.7,1014.4 916.3,1029.8 914.9,1028.4 931.7,1011.5 979.7,1059.5 	"/>
</g>
<g>
	<polygon points="1004.9,1194.7 906.7,1096.5 944.9,1058.4 946.3,1059.8 909.5,1096.5 1006.3,1193.3 	"/>
</g>
<g>
	<polygon points="1087.8,760 1042.9,715.2 1062.7,695.4 1064.2,696.8 1045.8,715.2 1089.2,758.6 	"/>
</g>
<g>
	<polygon points="1269.6,825 1127.8,683.2 1089.2,721.8 1087.8,720.4 1127.8,680.4 1271,823.6 	"/>
</g>
<g>
	<polygon points="1024.7,906.8 1023.2,905.4 1097.4,831.3 1164,897.9 1162.6,899.3 1097.4,834.1 	"/>
</g>
<g>
	<polygon points="989.9,630.7 913,553.9 896.4,570.5 895,569 913,551 991.3,629.3 	"/>
</g>
<g>
	<polygon points="909.2,1189.9 812.7,1093.4 895,1011.1 896.4,1012.5 815.6,1093.4 910.7,1188.5 	"/>
</g>
<g>
	<polygon points="884.1,847.4 882.7,846 920.2,808.6 948,836.4 946.6,837.8 920.2,811.4 	"/>
</g>
<g>
	<polygon points="416.5,1021.2 351.2,955.9 334.3,972.8 332.9,971.4 351.2,953.1 417.9,1019.8 	"/>
</g>
<g>
	<rect x="1079.3" y="857.9" transform="matrix(0.7071 -0.7071 0.7071 0.7071 -304.0341 1020.8455)" width="2" height="39.1"/>
</g>
<g>
	<polygon points="1310.2,723.1 1234.5,647.5 1164,718 1162.6,716.6 1234.5,644.6 1311.6,721.7 	"/>
</g>
<g>
	<polygon points="1276.7,875.7 1193.1,792 1215.5,769.5 1216.9,771 1195.9,792 1278.2,874.3 	"/>
</g>
<g>
	<polygon points="1080.1,479.3 953,479.3 953,431.3 878,431.3 878,429.3 955,429.3 955,477.3 1078.1,477.3 1078.1,397.3 
		1180.4,397.3 1180.4,457.3 1282.7,457.3 1282.7,459.3 1178.4,459.3 1178.4,399.3 1080.1,399.3 	"/>
</g>
<g>
	<polygon points="1139,520.1 1005,520.1 1005,478.3 1007,478.3 1007,518.1 1139,518.1 	"/>
</g>
<g>
	<polygon points="1121,398.3 1119,398.3 1119,342 1231,342 1231,344 1121,344 	"/>
</g>
<g>
	<polygon points="1310.9,499.7 1206,499.7 1206,458.3 1208,458.3 1208,497.7 1310.9,497.7 	"/>
</g>
<g>
	<polygon points="1080.1,519.1 1078.1,519.1 1078.1,507 1163.3,507 1163.3,509 1080.1,509 	"/>
</g>
<g>
	<polygon points="1110,573 1028,573 1028,519.1 1030,519.1 1030,571 1110,571 	"/>
</g>
<g>
	<polygon points="1282.7,538 1230,538 1230,498.7 1232,498.7 1232,536 1282.7,536 	"/>
</g>
<g>
	<polygon points="1257.8,498.7 1255.8,498.7 1255.8,486.8 1288,486.8 1288,488.8 1257.8,488.8 	"/>
</g>
<g>
	<polygon points="1056,572 1054,572 1054,551.5 1084,551.5 1084,553.5 1056,553.5 	"/>
</g>
<g>
	<polygon points="1194.5,594.4 1068.5,594.4 1068.5,572 1070.5,572 1070.5,592.4 1194.5,592.4 	"/>
</g>
<g>
	<polygon points="1277.5,366 1153,366 1153,343 1155,343 1155,364 1277.5,364 	"/>
</g>
<g>
	<polygon points="939,430.3 937,430.3 937,377 1055,377 1055,379 939,379 	"/>
</g>
<g>
	<polygon points="1175.5,606 1131,606 1131,593.4 1133,593.4 1133,604 1175.5,604 	"/>
</g>
<g>
	<polygon points="1029,405.2 977,405.2 977,378 979,378 979,403.2 1029,403.2 	"/>
</g>
<g>
	<polygon points="853.3,354.9 851.9,353.5 938.5,266.9 973.1,301.5 1069.6,205 1003.6,139 1071.5,71.1 1192.7,192.3 1250.8,134.3 
		1208.9,92.4 1270.4,30.9 1271.8,32.4 1211.7,92.4 1253.6,134.3 1192.7,195.2 1071.5,73.9 1006.4,139 1072.4,205 973.1,304.3 
		938.5,269.7 	"/>
</g>
<g>
	<polygon points="887.7,319.1 867.6,299 950.3,216.3 951.7,217.7 870.4,299 889.1,317.7 	"/>
</g>
<g>
	<polygon points="975.7,357.7 912.4,294.4 913.9,292.9 975.7,354.8 1049.8,280.8 1051.2,282.2 	"/>
</g>
<g>
	<polygon points="1097.2,291.6 1040.8,235.2 1042.2,233.8 1097.2,288.8 1152.7,233.2 1154.1,234.6 	"/>
</g>
<g>
	<rect x="1027.3" y="150.1" transform="matrix(0.7071 -0.7071 0.7071 0.7071 201.2422 788.0583)" width="49.1" height="2"/>
</g>
<g>
	<polygon points="1028.3,115.7 1005.8,93.2 1068.5,30.6 1069.9,32 1008.7,93.2 1029.7,114.3 	"/>
</g>
<g>
	<rect x="1109.7" y="90.3" transform="matrix(0.7071 -0.7071 0.7071 0.7071 274.2808 844.6722)" width="94" height="2"/>
</g>
<g>
	<polygon points="1239.3,191.1 1217.3,169.2 1218.7,167.8 1239.3,188.3 1313.8,113.8 1315.2,115.2 	"/>
</g>
<g>
	<polygon points="1006.3,358.6 989.9,342.1 991.3,340.7 1006.3,355.8 1039.3,322.8 1040.7,324.2 	"/>
</g>
<g>
	<polygon points="895,273 834.8,212.8 920.4,127.2 921.8,128.6 837.6,212.8 896.4,271.6 	"/>
</g>
<g>
	<polygon points="925.3,242.7 904.8,222.2 962.7,164.2 964.1,165.6 907.6,222.2 926.7,241.3 	"/>
</g>
<g>
	<polygon points="906.6,188.8 883.4,165.6 884.8,164.2 906.6,186 972.8,119.8 974.2,121.2 	"/>
</g>
<g>
	<polygon points="897.2,151.8 888,142.6 970.3,60.3 971.7,61.7 890.8,142.6 898.6,150.4 	"/>
</g>
<g>
	<polygon points="1119,268.4 1102.1,251.5 1153.8,199.8 1155.2,201.2 1104.9,251.5 1120.4,267 	"/>
</g>
<g>
	<polygon points="1259.3,80 1241,61.7 1242.4,60.3 1259.3,77.1 1319,17.5 1320.4,18.9 	"/>
</g>
<g>
	<polygon points="1276.3,185.6 1259.8,169.2 1261.2,167.8 1276.3,182.8 1310.8,148.2 1312.2,149.7 	"/>
</g>
<g>
	<polygon points="1026.6,73.9 1012.3,59.6 1041,30.9 1042.4,32.3 1015.1,59.6 1028,72.5 	"/>
</g>
<g>
	<polygon points="922.4,109.8 901.1,88.5 970.7,18.9 972.1,20.3 904,88.5 923.8,108.3 	"/>
</g>
<g>
	<polygon points="1063.4,168.3 1049.8,154.7 1051.2,153.2 1063.4,165.5 1093.1,135.8 1094.5,137.2 	"/>
</g>
<g>
	<polygon points="1117.3,294.3 1105.2,282.2 1106.6,280.8 1117.3,291.5 1188.4,220.4 1189.8,221.8 	"/>
</g>
<g>
	<polygon points="722,333.3 720,333.3 720,252 674.3,252 674.3,189.3 759.7,189.3 759.7,118.7 704.3,118.7 704.3,25.7 706.3,25.7 
		706.3,116.7 761.7,116.7 761.7,191.3 676.3,191.3 676.3,250 722,250 	"/>
</g>
<g>
	<polygon points="345,518.3 209,518.3 209,479.8 158,479.8 158,396.3 65,396.3 65,450 25,450 25,448 63,448 63,394.3 160,394.3 
		160,477.8 211,477.8 211,516.3 343,516.3 343,439.4 459.9,439.4 459.9,441.4 345,441.4 	"/>
</g>
<g>
	<polygon points="496.8,341 407.6,251.8 371.3,288.1 315.9,232.7 392.4,156.2 347.3,111.1 202.5,255.9 109.6,163 159.1,113.5 
		94.8,49.2 96.2,47.8 161.9,113.5 112.4,163 202.5,253.1 347.3,108.3 395.2,156.2 318.7,232.7 371.3,285.3 407.6,249 498.2,339.6 	
		"/>
</g>
<g>
	<polygon points="675.3,222.1 635,222.1 635,127.9 637,127.9 637,220.1 675.3,220.1 	"/>
</g>
<g>
	<polygon points="799,155 760.7,155 760.7,153 797,153 797,48.5 799,48.5 	"/>
</g>
<g>
	<polygon points="705.3,81 685,81 685,9 687,9 687,79 705.3,79 	"/>
</g>
<g>
	<polygon points="636,169.5 610,169.5 610,91.2 612,91.2 612,167.5 636,167.5 	"/>
</g>
<g>
	<polygon points="819,130.9 798,130.9 798,128.9 817,128.9 817,68 819,68 	"/>
</g>
<g>
	<polygon points="798,99.9 784,99.9 784,25.7 786,25.7 786,97.9 798,97.9 	"/>
</g>
<g>
	<polygon points="728,63.3 705.3,63.3 705.3,61.3 726,61.3 726,44.5 728,44.5 	"/>
</g>
<g>
	<polygon points="651,204.5 636,204.5 636,202.5 649,202.5 649,151.1 651,151.1 	"/>
</g>
<g>
	<polygon points="533.8,305.8 532.4,304.4 575.7,261.1 518.5,203.9 518.5,130.9 465,130.9 465,61.3 496.5,61.3 496.5,16.6 
		498.5,16.6 498.5,63.3 467,63.3 467,128.9 520.5,128.9 520.5,203.1 578.5,261.1 	"/>
</g>
<g>
	<polygon points="791.5,219.7 721.1,219.7 721.1,190.6 723.1,190.6 723.1,217.7 791.5,217.7 	"/>
</g>
<g>
	<polygon points="786,334.3 771.1,334.3 771.1,332.3 784,332.3 784,267.7 786,267.7 	"/>
</g>
<g>
	<rect x="610" y="221.1" width="2" height="72.6"/>
</g>
<g>
	<polygon points="522.6,263.1 464.5,205 465.9,203.6 522.6,260.3 549.4,233.4 550.8,234.8 	"/>
</g>
<g>
	<polygon points="611,258 599,258 599,203.5 601,203.5 601,256 611,256 	"/>
</g>
<g>
	<polygon points="570,178.3 519.5,178.3 519.5,176.3 568,176.3 568,80 570,80 	"/>
</g>
<g>
	<polygon points="466,92.2 433,92.2 433,40 435,40 435,90.2 466,90.2 	"/>
</g>
<g>
	<polygon points="569,152.7 543.3,152.7 543.3,106.1 545.3,106.1 545.3,150.7 569,150.7 	"/>
</g>
<g>
	<polygon points="590,121.5 569,121.5 569,119.5 588,119.5 588,48.5 590,48.5 	"/>
</g>
<g>
	<polygon points="477.2,245.6 434.9,203.3 436.3,201.9 477.2,242.8 490.4,229.5 491.8,230.9 	"/>
</g>
<g>
	<polygon points="507.4,245.9 505.9,244.5 513.8,236.6 444.8,167.6 446.3,166.2 516.6,236.6 	"/>
</g>
<g>
	<polygon points="399.4,351.1 343.3,295 344.7,293.6 399.4,348.3 422.3,325.4 407.9,311 438,280.9 439.4,282.3 410.7,311 
		425.1,325.4 	"/>
</g>
<g>
	<polygon points="281.6,304.1 243.2,265.8 244.6,264.4 281.6,301.3 333.8,249.2 335.2,250.6 	"/>
</g>
<g>
	<polygon points="361.7,343.4 343.6,325.4 345,324 361.7,340.6 376,326.3 377.4,327.7 	"/>
</g>
<g>
	<polygon points="278.2,333.6 248.3,303.7 249.7,302.3 278.2,330.8 316.6,292.3 304.3,280 305.7,278.6 319.4,292.3 	"/>
</g>
<g>
	<polygon points="122.9,287 39.9,204.1 41.3,202.6 122.9,284.2 177.5,229.5 178.9,230.9 	"/>
</g>
<g>
	<polygon points="111,120 35.8,44.8 37.2,43.4 111,117.1 137.5,90.5 139,92 	"/>
</g>
<g>
	<polygon points="120.4,73.4 119,72 123.6,67.3 91.3,35 92.7,33.6 126.4,67.3 	"/>
</g>
<g>
	<polygon points="87.8,250.6 86.4,249.2 92.6,243 29.4,179.8 30.8,178.4 95.4,243 	"/>
</g>
<g>
	<polygon points="127.3,220.4 37.6,130.6 39,129.2 127.3,217.6 146.5,198.5 147.9,199.9 	"/>
</g>
<g>
	<polygon points="214.1,197.2 188.5,171.7 254.3,106 206.5,58.3 208,56.9 257.1,106 191.4,171.7 214.1,194.4 248.8,159.7 273,184 
		271.6,185.4 248.8,162.5 	"/>
</g>
<g>
	<polygon points="368.2,130.6 366.8,129.2 381.1,114.9 322.3,56 323.7,54.6 384,114.9 	"/>
</g>
<g>
	<polygon points="251,144.1 234.3,127.4 235.7,126 251,141.3 299.5,92.8 261.5,54.8 262.9,53.3 302.3,92.8 	"/>
</g>
<g>
	<polygon points="217.1,102.9 157.9,43.7 159.4,42.3 217.1,100.1 233.5,83.8 234.9,85.2 	"/>
</g>
<g>
	<polygon points="284.2,76.1 282.8,74.6 288.5,69 250.2,30.8 251.6,29.4 291.3,69 	"/>
</g>
<g>
	<polygon points="345.2,93.5 323.7,72 325.1,70.6 345.2,90.7 352.1,83.8 353.5,85.2 	"/>
</g>
<g>
	<polygon points="84.7,291.1 45.3,251.7 46.7,250.3 84.7,288.2 105.1,267.8 106.5,269.2 	"/>
</g>
<g>
	<polygon points="261.8,329.5 231.5,299.3 232.9,297.9 261.8,326.7 267.2,321.2 268.6,322.6 	"/>
</g>
<g>
	<polygon points="344,474.7 304.3,474.7 304.3,403.3 225.3,403.3 225.3,401.3 306.3,401.3 306.3,472.7 344,472.7 	"/>
</g>
<g>
	<polygon points="243.4,622.2 124.7,622.2 124.7,620.2 241.4,620.2 241.4,555.3 287,555.3 287,517.3 289,517.3 289,557.3 
		243.4,557.3 	"/>
</g>
<g>
	<polygon points="183.7,570.2 60,570.2 60,568.2 181.7,568.2 181.7,478.8 183.7,478.8 	"/>
</g>
<g>
	<polygon points="136.3,395.3 134.3,395.3 134.3,343 40.6,343 40.6,341 136.3,341 	"/>
</g>
<g>
	<polygon points="96.5,514.7 40.6,514.7 40.6,512.7 94.5,512.7 94.5,422 64,422 64,420 96.5,420 	"/>
</g>
<g>
	<polygon points="273.7,422 206.4,422 206.4,420 271.7,420 271.7,402.3 273.7,402.3 	"/>
</g>
<g>
	<polygon points="171,621.2 169,621.2 169,607.3 102,607.3 102,605.3 171,605.3 	"/>
</g>
<g>
	<polygon points="137,580.7 82.7,580.7 82.7,578.7 135,578.7 135,570.4 137,570.4 	"/>
</g>
<g>
	<polygon points="106.8,350.7 62.1,350.7 62.1,348.7 104.8,348.7 104.8,342 106.8,342 	"/>
</g>
<g>
	<polygon points="122.3,342 120.3,342 120.3,321.3 22,321.3 22,319.3 122.3,319.3 	"/>
</g>
<g>
	<polygon points="117.7,543.7 115.7,543.7 115.7,468.3 95.5,468.3 95.5,466.3 117.7,466.3 	"/>
</g>
<g>
	<polygon points="53,457.3 36,457.3 36,455.3 51,455.3 51,449 53,449 	"/>
</g>
<g>
	<polygon points="251.1,430.7 218.7,430.7 218.7,428.7 249.1,428.7 249.1,421 251.1,421 	"/>
</g>
<g>
	<polygon points="71.3,772.8 69.9,771.4 151.2,690.1 223.3,762.2 221.8,763.6 151.2,692.9 	"/>
</g>
<g>
	<polygon points="12.7,879 11.3,877.6 69.3,819.6 82,832.2 80.5,833.7 69.3,822.4 	"/>
</g>
<g>
	<polygon points="476.1,764.3 474.7,762.9 519.3,718.2 512.9,711.8 514.3,710.4 522.2,718.2 	"/>
</g>
<g>
	<polygon points="626.3,906.1 624.3,906.1 624.3,799.3 644.1,799.3 644.1,801.3 626.3,801.3 	"/>
</g>
<g>
	<polygon points="338.5,605.9 337.1,604.5 386.9,554.7 421.2,589 467,543.3 467,513 469,513 469,544.1 421.2,591.8 386.9,557.5 	"/>
</g>
<g>
	<polygon points="304,1126.9 302.6,1125.5 330.3,1097.8 309.6,1077 311,1075.6 333.2,1097.8 	"/>
</g>
<g>
	<polygon points="119.2,1094 117.8,1092.6 153.6,1056.8 136,1039.2 137.4,1037.7 156.5,1056.8 	"/>
</g>
<g>
	<polygon points="73.4,721.5 72,720.1 105.8,686.3 131.1,711.6 129.7,713 105.8,689.1 	"/>
</g>
<g>
	<polygon points="345.4,634.4 344,633 384.2,592.7 367.3,575.7 368.7,574.3 387.1,592.7 	"/>
</g>
<g>
	<polygon points="422.5,560.9 421.1,559.5 437.8,542.8 453.3,558.4 451.9,559.8 437.8,545.6 	"/>
</g>
<g>
	<polygon points="662,1131 660,1131 660,1072.1 644.1,1072.1 644.1,1070.1 662,1070.1 	"/>
</g>
<g>
	<polygon points="482,1116 480,1116 480,1020.6 498.1,1020.6 498.1,1022.6 482,1022.6 	"/>
</g>
<g>
	<polygon points="508,1162.9 506,1162.9 506,1137.8 528.6,1137.8 528.6,1139.8 508,1139.8 	"/>
</g>
<g>
	<polygon points="494.8,873.8 492.8,873.8 492.8,836.1 528.6,836.1 528.6,838.1 494.8,838.1 	"/>
</g>
<g>
	<polygon points="595.7,699 593.7,699 593.7,632.7 624.3,632.7 624.3,549.5 626.3,549.5 626.3,634.7 595.7,634.7 	"/>
</g>
<g>
	<polygon points="853.6,790.6 851.6,790.6 851.6,769.1 842.1,769.1 842.1,767.1 853.6,767.1 	"/>
</g>
<g>
	<polygon points="808.6,1021.6 806.6,1021.6 806.6,953.3 797.1,953.3 797.1,951.3 808.6,951.3 	"/>
</g>
<g>
	<polygon points="566.3,930.1 564.3,930.1 564.3,874.8 552.6,874.8 552.6,872.8 566.3,872.8 	"/>
</g>
<g>
	<polygon points="626.3,1201 624.3,1201 624.3,1099.5 644.1,1099.5 644.1,1101.5 626.3,1101.5 	"/>
</g>
<g>
	<polygon points="880.9,1183.8 825.7,1128.6 837.5,1116.7 838.9,1118.2 828.5,1128.6 882.3,1182.4 	"/>
</g>
<g>
	<polygon points="982,1156.2 945.9,1120.1 938.8,1127.3 937.4,1125.8 945.9,1117.3 983.5,1154.8 	"/>
</g>
<g>
	<polygon points="1122.6,1198.4 1051.9,1127.6 1086.3,1093.3 1087.7,1094.7 1054.8,1127.6 1124.1,1196.9 	"/>
</g>
<g>
	<polygon points="1166.2,1186.3 1097.3,1117.5 1103.9,1110.9 1105.3,1112.3 1100.2,1117.5 1167.6,1184.9 	"/>
</g>
<g>
	<polygon points="1191,1106 1135.1,1050.2 1124.4,1060.9 1123,1059.5 1135.1,1047.4 1192.4,1104.6 	"/>
</g>
<g>
	<polygon points="1144.6,865.7 1121.6,842.8 1114.6,849.9 1113.1,848.4 1121.6,839.9 1146,864.3 	"/>
</g>
<g>
	<polygon points="1292,823 1253.7,784.7 1242.2,796.2 1240.8,794.8 1253.7,781.9 1293.4,821.6 	"/>
</g>
<g>
	<polygon points="1293.7,742 1239.1,687.3 1218.6,707.8 1195.7,684.9 1197.1,683.5 1218.6,705 1239.1,684.5 1295.2,740.6 	"/>
</g>
<g>
	<polygon points="1305.1,696.6 1257.8,649.3 1247.8,659.3 1246.4,657.9 1257.8,646.5 1306.5,695.1 	"/>
</g>
<g>
	<polygon points="1277.2,774.6 1230.8,728.3 1256.1,703 1257.5,704.4 1233.6,728.3 1278.6,773.2 	"/>
</g>
<g>
	<polygon points="1050.2,646.3 987.9,584 966.3,605.7 964.9,604.3 987.9,581.2 1051.6,644.9 	"/>
</g>
<g>
	<polygon points="956.5,784.9 883.9,712.3 903.1,693.1 904.5,694.6 886.7,712.3 957.9,783.5 	"/>
</g>
<g>
	<polygon points="1031.9,642.7 1006.7,617.5 1014.8,609.5 1016.2,610.9 1009.5,617.5 1033.3,641.3 	"/>
</g>
<g>
	<polygon points="1295.3,1048 1272.9,1025.6 1261.3,1037.3 1259.9,1035.9 1272.9,1022.8 1296.7,1046.5 	"/>
</g>
<g>
	<polygon points="1312.1,987.4 1207,882.3 1132.7,956.6 1158.2,982.2 1156.8,983.6 1129.8,956.6 1207,879.5 1313.5,986 	"/>
</g>
<g>
	<polygon points="995.5,980.6 956.6,941.8 943.5,955 942,953.5 956.6,939 996.9,979.2 	"/>
</g>
<g>
	<polygon points="1303.2,967.8 1265.9,930.6 1261.3,935.2 1259.9,933.8 1265.9,927.7 1304.6,966.4 	"/>
</g>
<g>
	<polygon points="898.2,844.3 896.8,842.8 912.9,826.7 909.2,823 910.7,821.6 915.7,826.7 	"/>
</g>
<g>
	<polygon points="1256.8,384 1193.5,384 1193.5,365 1195.5,365 1195.5,382 1256.8,382 	"/>
</g>
<g>
	<polygon points="1153.8,94.2 1125.7,66.2 1170.1,21.8 1171.5,23.2 1128.5,66.2 1155.2,92.8 	"/>
</g>
<g>
	<polygon points="611,734.3 609,734.3 609,655.1 594.7,655.1 594.7,653.1 611,653.1 	"/>
</g>
<g>
	<polygon points="485.7,113.3 466,113.3 466,111.3 483.7,111.3 483.7,80 485.7,80 	"/>
</g>
<g>
	<polygon points="434,72.3 419,72.3 419,25.7 421,25.7 421,70.3 434,70.3 	"/>
</g>
<g>
	<polygon points="505.7,49.5 497.5,49.5 497.5,47.5 503.7,47.5 503.7,30.1 505.7,30.1 	"/>
</g>
<g>
	<polygon points="597.7,81 589,81 589,79 595.7,79 595.7,62.3 597.7,62.3 	"/>
</g>
<g>
	<polygon points="544.3,130.9 536.3,130.9 536.3,117.7 538.3,117.7 538.3,128.9 544.3,128.9 	"/>
</g>
<g>
	<polygon points="624.5,141.3 611,141.3 611,139.3 622.5,139.3 622.5,117.7 624.5,117.7 	"/>
</g>
<g>
	<polygon points="472.3,193.6 470.9,192.2 481.3,181.8 469.7,170.3 471.2,168.9 484.1,181.8 	"/>
</g>
<g>
	<polygon points="265,286.1 263.6,284.7 271.8,276.5 267.1,271.8 268.5,270.4 274.6,276.5 	"/>
</g>
<g>
	<polygon points="806.3,293.9 785,293.9 785,291.9 804.3,291.9 804.3,247 806.3,247 	"/>
</g>
<g>
	<polygon points="785,282.5 777.1,282.5 777.1,262.1 779.1,262.1 779.1,280.5 785,280.5 	"/>
</g>
<g>
	<polygon points="1154.6,271.2 1146.8,263.4 1148.2,262 1154.6,268.4 1168.7,254.3 1170.1,255.7 	"/>
</g>
<g>
	<polygon points="1149,53.8 1144.3,49.1 1145.7,47.7 1149,51 1167.5,32.5 1168.9,33.9 	"/>
</g>
<g>
	<polygon points="1051.5,68.4 1041.8,58.7 1043.2,57.3 1051.5,65.6 1062,55.1 1063.4,56.5 	"/>
</g>
<g>
	<polygon points="1081.4,168.8 1071.4,158.9 1072.8,157.4 1081.4,166 1094.5,152.9 1095.9,154.3 	"/>
</g>
<g>
	<polygon points="1228.9,73.9 1216.5,61.5 1244.8,33.2 1246.2,34.6 1219.3,61.5 1230.3,72.5 	"/>
</g>
<g>
	<polygon points="1297.6,183.3 1287.4,173.1 1288.8,171.7 1297.6,180.5 1304.5,173.6 1305.9,175 	"/>
</g>
<g>
	<polygon points="1276.7,151.8 1269.8,144.9 1286.4,128.3 1287.8,129.7 1272.6,144.9 1278.2,150.4 	"/>
</g>
<g>
	<polygon points="1177.5,90.6 1167.5,80.5 1168.9,79.1 1177.5,87.8 1188,77.4 1189.4,78.8 	"/>
</g>
<g>
	<polygon points="1015.3,415.3 995.5,415.3 995.5,404.2 997.5,404.2 997.5,413.3 1015.3,413.3 	"/>
</g>
<g>
	<polygon points="1030,378 1028,378 1028,366.7 1050.5,366.7 1050.5,368.7 1030,368.7 	"/>
</g>
<g>
	<polygon points="1190.1,343 1188.1,343 1188.1,332.7 1210.7,332.7 1210.7,334.7 1190.1,334.7 	"/>
</g>
<g>
	<polygon points="1259.9,365 1257.9,365 1257.9,356.2 1295.3,356.2 1295.3,358.2 1259.9,358.2 	"/>
</g>
<g>
	<polygon points="1232,458.3 1230,458.3 1230,445.3 1256.8,445.3 1256.8,447.3 1232,447.3 	"/>
</g>
<g>
	<polygon points="1159.4,593.4 1157.4,593.4 1157.4,581.6 1169.4,581.6 1169.4,583.6 1159.4,583.6 	"/>
</g>
<g>
	<polygon points="1215.6,838.4 1203.7,826.5 1216.4,813.9 1217.8,815.3 1206.6,826.5 1217.1,837 	"/>
</g>
<g>
	<polygon points="1143.1,761.5 1123.8,742.1 1116.7,749.3 1115.2,747.9 1123.8,739.3 1144.5,760 	"/>
</g>
<g>
	<polygon points="1142.6,809.5 1119.8,786.7 1136.9,769.5 1138.3,771 1122.6,786.7 1144,808.1 	"/>
</g>
<g>
	<polygon points="1048.9,766.3 1035.1,752.5 1027.5,760 1026.1,758.6 1035.1,749.6 1050.4,764.9 	"/>
</g>
<g>
	<polygon points="910.1,766.8 890.4,747.2 905.2,732.4 906.6,733.9 893.3,747.2 911.5,765.4 	"/>
</g>
<g>
	<polygon points="970.1,1037.9 952.8,1020.6 946.1,1027.3 944.7,1025.9 952.8,1017.8 971.5,1036.5 	"/>
</g>
<g>
	<polygon points="990.5,1094.5 979.7,1083.7 975,1088.5 973.5,1087 979.7,1080.9 991.9,1093.1 	"/>
</g>
<g>
	<polygon points="976.4,1192 951,1166.6 964.6,1153 966,1154.4 953.8,1166.6 977.8,1190.5 	"/>
</g>
<g>
	<polygon points="889.9,1157.4 876,1143.4 870.1,1149.3 868.7,1147.9 876,1140.6 891.4,1155.9 	"/>
</g>
<g>
	<polygon points="1082.1,1183.5 1060,1161.5 1073.6,1147.9 1075,1149.3 1062.9,1161.5 1083.5,1182.1 	"/>
</g>
<g>
	<polygon points="1145,1195.6 1121.4,1171.9 1109.5,1183.8 1108.1,1182.4 1121.4,1169.1 1146.5,1194.2 	"/>
</g>
<g>
	<polygon points="1195.9,1083.8 1171.1,1059 1158.4,1071.8 1157,1070.4 1171.1,1056.2 1197.3,1082.4 	"/>
</g>
<g>
	<polygon points="1090.5,910 1063.7,883.2 1074.8,872 1076.2,873.4 1066.5,883.2 1091.9,908.6 	"/>
</g>
<g>
	<polygon points="470.5,1085.1 468.5,1085.1 468.5,1044.5 481,1044.5 481,1046.5 470.5,1046.5 	"/>
</g>
<g>
	<polygon points="537.5,1176.5 535.5,1176.5 535.5,1167 528.6,1167 528.6,1165 537.5,1165 	"/>
</g>
<g>
	<polygon points="614.5,1154 612.5,1154 612.5,1133.5 625.3,1133.5 625.3,1135.5 614.5,1135.5 	"/>
</g>
<g>
	<polygon points="638,1192 636,1192 636,1181 625.3,1181 625.3,1179 638,1179 	"/>
</g>
<g>
	<polygon points="553.6,1082.5 551.6,1082.5 551.6,1052.1 588.6,1052.1 588.6,1054.1 553.6,1054.1 	"/>
</g>
<g>
	<polygon points="672,1110.1 670,1110.1 670,1086.1 661,1086.1 661,1084.1 672,1084.1 	"/>
</g>
<g>
	<polygon points="701.5,1075.5 699.5,1075.5 699.5,1054 710.1,1054 710.1,1056 701.5,1056 	"/>
</g>
<g>
	<polygon points="560,1088.5 558,1088.5 558,1066.3 552.6,1066.3 552.6,1064.3 560,1064.3 	"/>
</g>
<g>
	<polygon points="575,915.5 573,915.5 573,896 565.3,896 565.3,894 575,894 	"/>
</g>
<g>
	<polygon points="540,944 538,944 538,918.5 552.6,918.5 552.6,920.5 540,920.5 	"/>
</g>
<g>
	<polygon points="518.5,889.4 516.5,889.4 516.5,861 528.6,861 528.6,863 518.5,863 	"/>
</g>
<g>
	<polygon points="606,889.7 604,889.7 604,852.6 625.3,852.6 625.3,854.6 606,854.6 	"/>
</g>
<g>
	<polygon points="635.7,878.5 633.7,878.5 633.7,867.5 625.3,867.5 625.3,865.5 635.7,865.5 	"/>
</g>
<g>
	<polygon points="766.6,830.5 764.6,830.5 764.6,811 755.1,811 755.1,809 766.6,809 	"/>
</g>
<g>
	<polygon points="808.6,824.5 806.6,824.5 806.6,803.1 819.6,803.1 819.6,805.1 808.6,805.1 	"/>
</g>
<g>
	<polygon points="782.3,753 780.3,753 780.3,723 773.1,723 773.1,721 782.3,721 	"/>
</g>
<g>
	<polygon points="587.3,676 585.3,676 585.3,664.5 594.7,664.5 594.7,666.5 587.3,666.5 	"/>
</g>
<g>
	<polygon points="622.5,699 620.5,699 620.5,681.5 610,681.5 610,679.5 622.5,679.5 	"/>
</g>
<g>
	<polygon points="472.5,738.9 471.1,737.5 484.5,724.1 492.5,732.1 491.1,733.5 484.5,726.9 	"/>
</g>
<g>
	<polygon points="387.4,837.8 378.7,829.1 370.3,837.5 368.9,836.1 378.7,826.3 388.8,836.4 	"/>
</g>
<g>
	<polygon points="257,968 255.6,966.6 267.6,954.7 276.3,963.4 274.9,964.8 267.6,957.5 	"/>
</g>
<g>
	<polygon points="228.7,1091.5 227.3,1090.1 256.8,1060.6 269.9,1073.6 268.5,1075.1 256.8,1063.4 	"/>
</g>
<g>
	<polygon points="275.8,1118.7 274.3,1117.2 287.1,1104.4 284.7,1102 286.1,1100.6 290,1104.4 	"/>
</g>
<g>
	<polygon points="397.4,986.9 385.2,974.7 378.3,981.6 376.9,980.2 385.2,971.9 398.9,985.5 	"/>
</g>
<g>
	<polygon points="139,1087.3 137.6,1085.9 147.3,1076.2 141.5,1070.4 142.9,1069 150.1,1076.2 	"/>
</g>
<g>
	<polygon points="81.6,1081.9 80.2,1080.5 92.3,1068.4 99.6,1075.6 98.1,1077 92.3,1071.2 	"/>
</g>
<g>
	<polygon points="33,1168 31.5,1166.5 73.5,1124.6 89.1,1140.1 87.7,1141.5 73.5,1127.4 	"/>
</g>
<g>
	<polygon points="106,1197.9 104.6,1196.5 117.6,1183.5 110.1,1176 111.5,1174.6 120.4,1183.5 	"/>
</g>
<g>
	<polygon points="34.3,1031 32.9,1029.6 49.5,1013.1 58.6,1022.1 57.1,1023.6 49.5,1015.9 	"/>
</g>
<g>
	<polygon points="64.2,952.7 62.8,951.3 118.4,895.7 149.4,926.8 148,928.2 118.4,898.6 	"/>
</g>
<g>
	<polygon points="131.3,957.1 129.9,955.7 142.3,943.3 137.6,938.6 139,937.2 145.1,943.3 	"/>
</g>
<g>
	<polygon points="151,908 149.5,906.5 167.1,888.9 177.2,899 175.8,900.4 167.1,891.8 	"/>
</g>
<g>
	<polygon points="17.5,963.7 16.1,962.3 73.1,905.3 91.6,923.9 90.2,925.3 73.1,908.1 	"/>
</g>
<g>
	<polygon points="151.7,862.7 150.3,861.3 165.4,846.2 152.3,833.1 153.8,831.7 168.2,846.2 	"/>
</g>
<g>
	<polygon points="92.6,762.6 91.2,761.2 113.2,739.1 108.4,734.3 109.8,732.9 116,739.1 	"/>
</g>
<g>
	<polygon points="74.7,706.2 73.3,704.8 84.9,693.2 92.6,700.9 91.2,702.3 84.9,696 	"/>
</g>
<g>
	<polygon points="152,632 136,632 136,630 150,630 150,621.2 152,621.2 	"/>
</g>
<g>
	<polygon points="280,670.4 278.6,669 294,653.6 306.4,666 305,667.4 294,656.4 	"/>
</g>
<g>
	<polygon points="312.4,745.3 311,743.9 336.5,718.4 326.9,708.8 328.3,707.4 339.3,718.4 	"/>
</g>
<g>
	<polygon points="357.6,585.4 347.9,575.7 340,583.7 338.5,582.2 347.9,572.9 359,584 	"/>
</g>
<g>
	<polygon points="259.5,605.2 257.5,605.2 257.5,580.5 242.4,580.5 242.4,578.5 259.5,578.5 	"/>
</g>
<g>
	<polygon points="131.4,513 129.4,513 129.4,490 116.7,490 116.7,488 131.4,488 	"/>
</g>
<g>
	<polygon points="75,528 62.5,528 62.5,526 73,526 73,513 75,513 	"/>
</g>
<g>
	<polygon points="289,402.3 287,402.3 287,392.5 249,392.5 249,390.5 289,390.5 	"/>
</g>
<g>
	<polygon points="79.5,333.2 52,333.2 52,331.2 77.5,331.2 77.5,320.3 79.5,320.3 	"/>
</g>
<g>
	<polygon points="77.3,101.8 61.5,86 62.9,84.6 77.3,98.9 84.3,91.9 85.8,93.3 	"/>
</g>
<g>
	<polygon points="70.9,162.5 69.5,161.1 83.3,147.2 71.4,135.3 72.8,133.9 86.2,147.2 	"/>
</g>
<g>
	<polygon points="193.3,197.6 181.2,185.4 182.6,184 193.3,194.7 203.2,184.9 204.6,186.3 	"/>
</g>
<g>
	<polygon points="190.8,96.8 180.6,86.6 182,85.2 190.8,94 200.2,84.6 201.6,86 	"/>
</g>
<g>
	<polygon points="289.1,123 279.9,113.8 281.3,112.4 289.1,120.2 296.3,112.9 297.8,114.4 	"/>
</g>
<g>
	<polygon points="304.3,163.3 302.9,161.9 317.5,147.3 313.6,143.4 315,142 320.3,147.3 	"/>
</g>
<g>
	<polygon points="362.2,213.7 349.3,200.7 350.7,199.3 362.2,210.8 389.1,184 390.5,185.4 	"/>
</g>
<g>
	<polygon points="376.5,108.9 375.1,107.5 384.6,97.9 375,88.3 376.4,86.9 387.5,97.9 	"/>
</g>
<g>
	<polygon points="158.2,280.5 156.8,279.1 167,268.9 153.3,255.2 154.7,253.8 169.8,268.9 	"/>
</g>
<g>
	<polygon points="58.6,288.1 48.8,278.3 50.2,276.9 58.6,285.3 69.5,274.4 70.9,275.8 	"/>
</g>
<g>
	<polygon points="425,267.8 423.6,266.4 434.1,256 426.7,248.6 428.1,247.2 436.9,256 	"/>
</g>
<g>
	<polygon points="366,316.3 364.6,314.9 370,309.5 358,297.6 359.4,296.1 372.8,309.5 	"/>
</g>
<g>
	<polygon points="466,76.4 457,76.4 457,55.3 459,55.3 459,74.4 466,74.4 	"/>
</g>
<g>
	<polygon points="519.5,160 503.7,160 503.7,145.5 505.7,145.5 505.7,158 519.5,158 	"/>
</g>
<g>
	<polygon points="376,208.2 371.2,203.3 372.6,201.9 376,205.3 384.4,196.9 385.8,198.3 	"/>
</g>
<g>
	<polygon points="92.6,208.8 68,184.2 69.5,182.8 92.6,205.9 103.4,195.1 104.9,196.5 	"/>
</g>
<g>
	<polygon points="53.9,61.5 52.5,60.1 58.8,53.8 49.3,44.3 50.7,42.9 61.6,53.8 	"/>
</g>
<g>
	<polygon points="177.1,61.5 175.7,60.1 182,53.8 175.6,47.3 177,45.9 184.9,53.8 	"/>
</g>
<g>
	<polygon points="261.1,78.3 243.8,60.9 245.2,59.5 261.1,75.4 271.6,64.9 273,66.3 	"/>
</g>
<g>
	<polygon points="686,47.5 674.3,47.5 674.3,39.3 676.3,39.3 676.3,45.5 686,45.5 	"/>
</g>
<g>
	<polygon points="785,74.5 774,74.5 774,61 776,61 776,72.5 785,72.5 	"/>
</g>
<g>
	<polygon points="829.5,113.3 818,113.3 818,111.3 827.5,111.3 827.5,91.2 829.5,91.2 	"/>
</g>
<g>
	<polygon points="739.5,130.9 722.1,130.9 722.1,128.9 737.5,128.9 737.5,117.7 739.5,117.7 	"/>
</g>
<g>
	<polygon points="743.5,218.7 741.5,218.7 741.5,205 775,205 775,207 743.5,207 	"/>
</g>
<g>
	<polygon points="926,65 910.6,49.6 930.9,29.3 932.3,30.7 913.4,49.6 927.4,63.6 	"/>
</g>
<g>
	<polygon points="962.6,88.2 953.2,78.8 954.6,77.4 962.6,85.4 970.7,77.3 972.1,78.8 	"/>
</g>
<g>
	<polygon points="946,148 937.1,139 952.7,123.3 954.2,124.7 939.9,139 947.5,146.5 	"/>
</g>
<g>
	<polygon points="932.7,212.7 924.2,204.2 925.6,202.7 932.7,209.9 954.8,187.9 956.2,189.3 	"/>
</g>
<g>
	<polygon points="916.5,265.9 909.3,258.7 910.7,257.3 916.5,263.1 947,232.6 948.4,234 	"/>
</g>
<g>
	<polygon points="1002.8,272.5 994.9,264.6 1010.9,248.7 1012.3,250.1 997.8,264.6 1004.2,271.1 	"/>
</g>
<g>
	<polygon points="1014.6,317.4 1006.5,309.3 1027.3,288.5 1028.7,289.9 1009.3,309.3 1016,316 	"/>
</g>
<g>
	<polygon points="1023.5,352.4 1017.3,346.2 1018.7,344.8 1023.5,349.6 1037.4,335.7 1038.8,337.1 	"/>
</g>
<g>
	<polygon points="1112.3,242.7 1103.7,234.1 1121.9,215.9 1123.3,217.3 1106.5,234.1 1113.7,241.3 	"/>
</g>
<g>
	<polygon points="1153.2,177.6 1137.7,162.1 1149.4,150.4 1150.8,151.8 1140.5,162.1 1154.7,176.2 	"/>
</g>
<g>
	<polygon points="1278.1,75.7 1270.1,67.7 1271.5,66.3 1278.1,72.8 1305.3,45.6 1306.7,47 	"/>
</g>
<g>
	<polygon points="1229,126.4 1216.5,114 1217.9,112.6 1229,123.6 1235.3,117.3 1236.7,118.7 	"/>
</g>
<g>
	<polygon points="851.9,197.1 839.9,185.1 857.1,167.9 858.5,169.3 842.7,185.1 853.3,195.7 	"/>
</g>
<g>
	<polygon points="857.7,258.3 850,250.7 851.5,249.3 857.7,255.5 868.3,244.8 869.7,246.3 	"/>
</g>
<g>
	<path d="M681.3,643.5l-35.1-35.1H580V632h-38v-19.8h-44.8l-35.5-35.5v-27.5l-32.2-32.2l-23.2,23.2l-48.8-48.8l24.2-24.2V423h-23.3
		v-29.7h21v-40.4l17.4,17.4l23.7-22l19.4-18.6l-13.2-25.8l35.9-0.7l26.8-26.8h68.1l16.8,16.8l19.4-19.4h15.6l29.9-29.9l16.8,16.8
		h23.6l31,31l8.9-8.9h42.1l24.4,24.4h34.7l14.3-14.3l70.4,70.4l23.6-23.6l16.6,16.6v21.1l15.5,15.5l-38.1,38.1v40.7l22.2,22.2
		l-30.1,30.1l-14.6-14.6l-31.9,31.9v31.7l-27.7,27.7l-21.8-21.8l-34.9,34.9h-25.2v-24h-55.8v32.3L681.3,643.5z M576,604.3h71.8
		l33.5,33.5l17.5-17.5v-34.6h63.8v24h19.5l36.6-36.6l21.8,21.8l23.7-23.7v-31.7l35.9-35.9l14.6,14.6l24.5-24.5l-20.5-20.5v-44
		l36.5-36.5l-13.8-13.8v-21.1l-12.6-12.6l-23.6,23.6l-70.4-70.4L822.2,311h-38l-24.4-24.4H721l-10.6,10.6l-32.6-32.6h-23.6
		l-15.2-15.2l-28.3,28.3h-15.6l-21.1,21.1l-18.4-18.4H491l-26.8,26.8l-31.1,0.6l11.7,22.7l-21.6,20.7l-26.6,24.6l-13.3-13.3v34.8
		h-21V419h23.3v49.8l-22.5,22.5l43.1,43.1l23.2-23.2l36.2,36.2V575l33.2,33.2H546V628h30V604.3z"/>
</g>
<g>
	<path d="M556.2,599.9h-37v-23h-24v-35.5h-20v-21.9h-22.8v-16.7H396v-32.8h27.2v-18.8h30.3v-16.2h-46v-28.7h29.2v-7.9H420v-32.9
		l9.7,0.1l45.5,0v-19.8H491v-21.9h24v-25.1h42.2v13.6h27.2v40.7h6.8v-65.8h36v39.7h4.8v-46h33.9v19.8h24v40.7H704v15.7h5.3v-30.3
		h14.6v-30.3h32.8V319h20.9v21.4h18.8v16.7h1.6v-30.3h31.8v20.9h44.9v36h-19.8v1.6h64.8v38.1h-35.5v20.9h-16.7v2.7H904v29.7h-47v5.3
		h23v35.5h-20.9v32.4h-42.2v-30.3h-13.1v24h-20.9v26.1h-41.2v-43.9h-13.1v25.1h-31.8v-25.1h-24.6v68.9h-36V556H608v-23h-13.1v40.7
		h-37v-23h-1.6V599.9z M532.2,586.9h11v-49.1h27.6v23h11V520H621v23h28.2v38.6h10v-68.9h50.6v25.1h5.8v-25.1h39.1v43.9h15.2v-26.1
		h20.9v-24h39.1v30.3h16.2v-32.4H867v-9.5h-23v-31.3h47v-3.7h-36.6v-28.7h16.7v-20.9h35.5v-12.1h-64.8v-27.6h19.8v-10h-44.9v-20.9
		H811v30.3h-27.6v-16.7h-18.8V332h-20.9v-22.5h-6.8v30.3h-14.6v30.3H691v-15.7h-14.1v-40.7h-24v-19.8H645v46h-30.8v-39.7h-10v65.8
		h-32.8v-40.7h-4.8v21.9h-22.4v-35.5H528v25.1h-24v21.9h-15.8v19.8l-55.2,0v6.8h16.7v33.9h-29.2v2.7h46v42.2h-30.3v18.8H409v6.8
		h56.4v16.7h22.8v21.9h20v35.5h24V586.9z"/>
</g>
<g>
	<path d="M493.1,397.6h11.4l26.2,34.5v-34.5h12.2v56h-10.5L505.2,418v35.6h-12.2V397.6z"/>
	<path d="M551.5,397.6h42.2v11h-30V420h26.4v11h-26.4v11.8h30.4v11h-42.6V397.6z"/>
	<path d="M599.4,429.6v-32h12.3v31.7c0,9.1,4.6,13.8,12.1,13.8s12.1-4.6,12.1-13.4v-32.1h12.3v31.6c0,17-9.5,25.3-24.6,25.3
		C608.6,454.5,599.4,446.1,599.4,429.6z"/>
	<path d="M655.9,397.6h25.6c7.1,0,12.6,2,16.3,5.7c3.1,3.1,4.8,7.5,4.8,12.8v0.2c0,9-4.9,14.7-12,17.4l13.7,20h-14.4l-12-17.9h-0.2
		h-9.5v17.9h-12.3V397.6z M680.7,424.8c6,0,9.4-3.2,9.4-7.9v-0.2c0-5.3-3.7-8-9.7-8h-12.2v16.1H680.7z"/>
	<path d="M706.5,425.8v-0.2c0-15.9,12.6-29,29.8-29s29.7,12.9,29.7,28.8v0.2c0,15.9-12.6,29-29.8,29S706.5,441.7,706.5,425.8z
		 M753.1,425.8v-0.2c0-9.6-7-17.6-17-17.6s-16.8,7.8-16.8,17.4v0.2c0,9.6,7,17.6,17,17.6C746.3,443.2,753.1,435.4,753.1,425.8z"/>
	<path d="M772.2,397.6h11.4l26.2,34.5v-34.5h12.2v56h-10.5L784.3,418v35.6h-12.2V397.6z"/>
</g>
<g>
	<path stroke="#000000" stroke-width="0.25" stroke-miterlimit="10" d="M493.4,474.3L493.4,474.3c0-8.4,6-15.3,14.5-15.3
		c5.5,0,8.4,2.1,11.2,4.7l-0.6,0.6c-2.4-2.3-5.3-4.5-10.6-4.5c-7.8,0-13.5,6.6-13.5,14.3v0.1c0,7.8,5.8,14.3,13.5,14.3
		c4.8,0,8.4-2.3,10.7-4.8l0.7,0.6c-2.6,2.7-6.3,5-11.4,5C499.5,489.4,493.4,482.6,493.4,474.3z"/>
	<path stroke="#000000" stroke-width="0.25" stroke-miterlimit="10" d="M524.5,474.2L524.5,474.2c0-8.1,5.7-15.2,14.6-15.2
		c8.9,0,14.6,7.1,14.6,15.2v0.1c0,8-5.7,15.2-14.6,15.2C530.2,489.4,524.5,482.3,524.5,474.2z M552.8,474.3L552.8,474.3
		c0-7.6-5.5-14.5-13.7-14.5c-8.2,0-13.7,6.7-13.7,14.3v0.1c0,7.5,5.5,14.4,13.7,14.4C547.4,488.6,552.8,481.9,552.8,474.3z"/>
	<path stroke="#000000" stroke-width="0.25" stroke-miterlimit="10" d="M562.6,459.5h12c3.8,0,6.6,1,8.4,2.8
		c1.3,1.3,2.1,3.2,2.1,5.5v0.1c0,5-3.9,7.9-9.6,8.2l9.8,12.9h-1.1l-9.7-12.8h-0.1h-10.8v12.8h-0.9V459.5z M574.1,475.3
		c6.8,0,10.1-3.2,10.1-7.4v-0.1c0-4.7-3.6-7.4-9.7-7.4h-11v14.9H574.1z"/>
	<path stroke="#000000" stroke-width="0.25" stroke-miterlimit="10" d="M594.4,459.5h10.3c7.2,0,11.3,3.3,11.3,8.8v0.1
		c0,5.7-4.4,8.9-11.5,8.9h-9.2v11.6h-0.9V459.5z M604.5,476.5c6.5,0,10.5-2.9,10.5-8.1v-0.1c0-5-3.9-8-10.5-8h-9.3v16.2H604.5z"/>
	<path stroke="#000000" stroke-width="0.25" stroke-miterlimit="10" d="M622.6,474.2L622.6,474.2c0-8.1,5.7-15.2,14.6-15.2
		c8.9,0,14.6,7.1,14.6,15.2v0.1c0,8-5.7,15.2-14.6,15.2C628.3,489.4,622.6,482.3,622.6,474.2z M650.9,474.3L650.9,474.3
		c0-7.6-5.5-14.5-13.7-14.5c-8.2,0-13.7,6.7-13.7,14.3v0.1c0,7.5,5.5,14.4,13.7,14.4C645.5,488.6,650.9,481.9,650.9,474.3z"/>
	<path stroke="#000000" stroke-width="0.25" stroke-miterlimit="10" d="M660.7,459.5h12c3.8,0,6.6,1,8.4,2.8
		c1.3,1.3,2.1,3.2,2.1,5.5v0.1c0,5-3.9,7.9-9.6,8.2l9.8,12.9h-1.1l-9.7-12.8h-0.1h-10.8v12.8h-0.9V459.5z M672.2,475.3
		c6.8,0,10.1-3.2,10.1-7.4v-0.1c0-4.7-3.6-7.4-9.7-7.4h-11v14.9H672.2z"/>
	<path stroke="#000000" stroke-width="0.25" stroke-miterlimit="10" d="M703.4,459.3h0.8l14.2,29.6h-1l-4.2-8.8h-18.7l-4.2,8.8h-1
		L703.4,459.3z M712.8,479.2l-8.9-18.7l-8.9,18.7H712.8z"/>
	<path stroke="#000000" stroke-width="0.25" stroke-miterlimit="10" d="M729.4,460.3h-10.6v-0.8h22.2v0.8h-10.6v28.6h-0.9V460.3z"/>
	<path stroke="#000000" stroke-width="0.25" stroke-miterlimit="10" d="M748.1,459.5h0.9v29.4h-0.9V459.5z"/>
	<path stroke="#000000" stroke-width="0.25" stroke-miterlimit="10" d="M758.2,474.2L758.2,474.2c0-8.1,5.7-15.2,14.6-15.2
		c8.9,0,14.6,7.1,14.6,15.2v0.1c0,8-5.7,15.2-14.6,15.2C763.9,489.4,758.2,482.3,758.2,474.2z M786.5,474.3L786.5,474.3
		c0-7.6-5.5-14.5-13.7-14.5c-8.2,0-13.7,6.7-13.7,14.3v0.1c0,7.5,5.5,14.4,13.7,14.4C781.1,488.6,786.5,481.9,786.5,474.3z"/>
	<path stroke="#000000" stroke-width="0.25" stroke-miterlimit="10" d="M796.3,459.5h0.8l22.3,27.9v-27.9h0.9v29.4h-0.8L797.2,461
		v27.9h-0.9V459.5z"/>
</g>
<g>
	<path d="M551.7,595.4h-28v-23h-24v-35.5h-20V515h-22.8v-16.7h-56.4v-23.8h27.2v-18.8h30.3v-25.2h-46v-19.7h29.2v-16.9h-16.7v-23.9
		l5.1,0l50,0v-19.8h15.8v-21.9h24v-25.1h33.2v35.5h5.4v-21.9h21.8v40.7h15.8v-65.8h27v39.7h13.8v-46h24.9v19.8h24V346h14.1v15.7
		h14.3v-30.3h14.6V301h23.8v22.5h20.9v21.4h18.8v16.7h10.6v-30.3h22.8v20.9h44.9v27h-19.8v10.6h64.8v29.1h-35.5v20.9h-16.7v11.7
		h36.6v20.7h-47v14.3h23v26.5h-20.9v32.4h-33.2V515h-22.1v24h-20.9v26.1h-32.2v-43.9H724v25.1h-22.8v-25.1h-33.6v68.9h-27v-38.6
		h-28.2v-23h-22.1v40.7h-28v-23h-10.6V595.4z M527.7,591.4h20v-49.1h18.6v23h20v-40.7h30.1v23h28.2v38.6h19v-68.9h41.6v25.1H720
		v-25.1h30.1v43.9h24.2V535h20.9v-24h30.1v30.3h25.2v-32.4h20.9v-18.5h-23v-22.3h47v-12.7h-36.6v-19.7h16.7v-20.9h35.5v-21.1h-64.8
		v-18.6h19.8v-19h-44.9v-20.9h-14.8v30.3h-18.6v-16.7h-18.8v-21.4h-20.9V305h-15.8v30.3h-14.6v30.3h-22.3V350h-14.1v-40.7h-24v-19.8
		h-16.9v46h-21.8v-39.7h-19v65.8h-23.8v-40.7h-13.8v21.9h-13.4v-35.5h-25.2v25.1h-24v21.9h-15.8v19.8l-54.1,0l-1.1,0v15.9h16.7v24.9
		h-29.2v11.7h46v33.2h-30.3v18.8h-27.2v15.8h56.4V511h22.8v21.9h20v35.5h24V591.4z"/>
</g>
</svg>
